<?xml version="1.0" standalone="no"?>
<!DOCTYPE svg PUBLIC "-//W3C//DTD SVG 20010904//EN"
 "http://www.w3.org/TR/2001/REC-SVG-20010904/DTD/svg10.dtd">
<svg version="1.0" xmlns="http://www.w3.org/2000/svg"
 width="256.000000pt" height="256.000000pt" viewBox="0 0 256.000000 256.000000"
 preserveAspectRatio="xMidYMid meet">
<metadata>
Created by potrace 1.14, written by Peter Selinger 2001-2017
</metadata>
<g transform="translate(0.000000,256.000000) scale(0.100000,-0.100000)"
fill="#000000" stroke="none">
<path d="M1549 2539 c-193 -29 -463 -320 -645 -697 -122 -253 -177 -494 -178
-787 -1 -61 -5 -113 -11 -117 -6 -5 -5 -8 4 -8 11 0 11 -3 0 -17 -11 -13 -11
-15 -1 -9 10 6 13 2 10 -15 -2 -15 -9 -23 -18 -21 -8 2 -11 0 -7 -5 5 -4 13
-9 18 -9 5 -1 12 -2 15 -3 4 0 0 -9 -7 -18 -8 -9 -9 -14 -3 -10 6 3 11 1 11
-6 0 -7 3 -27 8 -46 6 -27 4 -32 -6 -27 -8 4 -5 0 6 -10 18 -15 18 -16 2 -10
-11 3 -23 4 -28 1 -10 -7 19 -55 33 -55 5 0 0 10 -12 22 -22 24 -21 32 4 22 9
-3 13 -10 10 -15 -3 -5 0 -9 6 -9 7 0 10 -7 7 -15 -4 -8 -2 -17 4 -20 5 -4 6
-11 3 -17 -4 -6 -1 -14 5 -18 9 -5 7 -11 -5 -21 -16 -12 -17 -12 -11 3 3 10 3
17 -1 17 -24 -4 -32 2 -24 17 6 11 1 24 -17 45 -14 15 -27 27 -29 24 -2 -2 5
-14 17 -26 25 -27 26 -42 5 -60 -13 -11 -14 -9 -9 14 5 18 3 27 -5 27 -6 0 -8
-5 -5 -10 4 -6 2 -17 -4 -24 -9 -10 -8 -15 4 -19 8 -4 12 -13 9 -21 -3 -8 -12
-12 -21 -9 -12 5 -12 7 -1 15 9 6 6 7 -9 3 -21 -6 -33 8 -15 18 4 2 1 2 -6 1
-22 -6 -27 28 -7 42 10 8 14 14 8 14 -6 0 -16 -7 -24 -16 -10 -12 -10 -20 -1
-35 18 -28 14 -37 -6 -13 -15 18 -21 19 -35 9 -15 -11 -15 -14 -3 -18 11 -5
13 -13 6 -35 -5 -20 -4 -34 3 -41 19 -19 -6 -12 -33 9 -14 11 -34 20 -45 20
-12 0 -3 -8 23 -20 23 -10 42 -24 42 -30 0 -8 -6 -8 -20 0 -16 8 -21 6 -30
-12 -10 -20 -9 -21 3 -6 9 11 18 14 28 7 8 -5 10 -9 4 -9 -5 0 -4 -5 2 -11 6
-6 9 -18 6 -25 -3 -8 0 -14 7 -14 6 0 9 4 6 9 -3 5 5 8 18 8 13 0 23 -6 23
-13 0 -8 -7 -13 -16 -12 -9 2 -16 -5 -18 -17 -2 -17 -2 -17 5 -3 4 11 12 14
21 9 9 -6 10 -11 2 -15 -6 -4 -11 -13 -11 -19 0 -7 7 -4 14 6 9 12 16 14 21 7
3 -5 11 -7 17 -4 6 4 8 -1 3 -15 -5 -16 -2 -21 10 -21 11 0 15 -5 11 -15 -7
-18 20 -34 48 -28 17 4 18 3 6 -6 -12 -8 -12 -11 -1 -11 8 0 11 -6 6 -17 -5
-14 -4 -15 6 -6 15 15 53 -2 43 -19 -4 -7 -3 -8 4 -4 7 4 12 3 12 -3 0 -5 -6
-12 -12 -14 -10 -4 -10 -6 -1 -6 21 -2 26 20 9 38 -22 25 -9 33 25 15 19 -9
29 -11 29 -3 0 6 -9 13 -20 16 -11 3 -20 9 -20 15 0 10 36 -7 45 -22 4 -6 2
-16 -3 -23 -7 -8 -6 -18 3 -30 11 -15 17 -16 33 -8 17 9 19 8 15 -9 -3 -11
-10 -23 -16 -27 -6 -4 -8 0 -4 10 4 11 2 14 -9 10 -16 -6 -19 -23 -4 -23 6 0
12 1 13 3 2 1 11 -4 20 -11 10 -9 17 -10 22 -2 11 17 30 11 46 -16 14 -22 17
-24 22 -10 4 10 3 14 -2 11 -5 -3 -13 0 -17 7 -4 7 -4 10 1 6 4 -4 17 -3 28 3
14 8 17 8 13 0 -4 -6 0 -23 8 -38 8 -16 15 -22 16 -14 0 11 4 10 16 -5 8 -10
13 -13 9 -7 -3 7 -1 21 5 30 11 17 11 17 6 1 -6 -21 4 -23 23 -6 10 9 12 9 7
1 -3 -6 -2 -14 4 -18 5 -3 10 0 10 7 0 9 3 9 10 -2 5 -8 7 -24 4 -35 -6 -19
-6 -20 8 -1 8 10 20 16 26 12 6 -3 16 2 22 11 9 14 10 14 7 2 -7 -22 5 -39 31
-44 15 -2 19 0 15 11 -3 8 0 14 6 14 6 0 11 -6 11 -14 0 -8 7 -17 16 -20 15
-6 15 -4 3 10 -13 16 -12 16 16 2 17 -8 36 -13 44 -10 8 3 11 0 7 -6 -3 -6 -1
-14 5 -18 8 -4 9 -3 5 4 -4 7 -3 12 3 12 5 0 12 -4 15 -8 3 -5 22 -8 43 -7 21
1 52 -5 68 -13 30 -14 30 -14 10 5 -14 13 -32 19 -57 18 -21 -1 -35 1 -33 5 3
4 -5 7 -17 6 -12 0 -22 5 -24 12 -1 7 0 8 2 3 3 -5 16 -7 30 -5 14 3 24 0 24
-7 0 -8 4 -8 14 0 9 8 16 8 20 2 4 -5 15 -8 26 -6 12 2 18 0 15 -4 -3 -5 2
-12 11 -15 8 -3 12 -2 9 3 -3 5 0 13 6 17 8 4 9 3 5 -4 -4 -7 -2 -12 4 -12 6
0 8 -5 4 -12 -4 -7 -3 -8 5 -4 6 4 9 11 6 16 -3 5 0 12 6 16 7 4 9 3 5 -4 -3
-6 -2 -13 3 -16 5 -3 12 1 15 10 5 12 10 13 19 6 8 -7 18 -7 27 -2 8 5 21 5
32 -1 13 -7 18 -6 18 3 0 9 3 9 10 -2 17 -26 11 -31 -19 -16 -20 11 -31 12
-39 4 -8 -8 -15 -8 -27 2 -8 7 -15 8 -15 4 0 -5 9 -15 19 -21 16 -10 20 -9 25
3 5 13 9 13 36 -1 29 -15 31 -15 41 9 10 20 15 23 30 15 11 -6 16 -16 13 -27
-5 -16 -5 -16 6 1 6 9 8 22 4 29 -4 6 -3 8 4 4 5 -3 13 0 15 6 4 10 6 9 6 -1
1 -10 4 -11 14 -2 10 8 14 7 14 -4 0 -8 -5 -11 -10 -8 -6 3 -7 1 -3 -6 9 -14
26 -5 26 15 0 8 4 14 9 14 6 0 8 -9 6 -20 -2 -12 0 -18 6 -15 5 4 6 11 3 17
-4 6 -1 8 7 6 8 -3 13 -11 11 -17 -1 -7 2 -9 8 -6 8 5 5 13 -6 26 -17 19 -17
20 1 13 10 -4 16 -3 13 2 -4 5 5 10 18 10 15 1 23 -3 21 -10 -2 -6 -11 -10
-21 -8 -22 4 -20 -5 4 -18 16 -8 20 -8 18 2 -2 7 6 13 16 13 11 0 21 7 23 15
4 12 3 12 -5 2 -7 -11 -10 -11 -15 3 -4 9 -3 13 2 10 5 -3 12 -1 16 4 3 6 13
7 22 4 10 -4 14 -2 10 4 -8 13 18 11 30 -1 4 -4 2 -6 -6 -4 -7 2 -16 -4 -18
-12 -3 -10 -2 -11 4 -4 4 6 16 10 25 8 10 -1 21 3 25 8 3 7 1 8 -5 4 -6 -3
-16 3 -22 14 -6 11 -7 20 -3 19 4 -1 10 0 13 1 20 8 46 7 56 -1 8 -7 15 -6 20
2 5 8 3 9 -6 4 -10 -6 -12 -4 -7 9 6 14 3 17 -8 12 -10 -3 -13 -2 -10 4 4 6
14 9 23 8 11 -2 16 3 14 12 -2 8 0 12 4 8 4 -4 14 -2 22 5 10 8 13 8 9 1 -4
-7 -1 -14 7 -17 10 -4 12 0 9 14 -3 10 0 26 7 34 15 18 34 20 24 3 -4 -8 -3
-9 2 -5 5 5 9 16 9 25 0 10 7 16 17 16 10 -1 15 3 12 8 -3 5 2 18 12 28 28 28
44 48 44 55 0 3 9 16 21 28 52 55 141 279 164 412 14 81 13 348 -1 430 -46
260 -179 594 -335 843 -204 323 -418 488 -600 461z m-803 -1936 c9 -10 23 -18
31 -18 7 0 12 -3 10 -6 -1 -3 4 -13 12 -22 7 -10 10 -17 7 -17 -4 0 0 -7 8
-16 9 -8 14 -19 11 -24 -3 -5 -1 -11 5 -15 6 -4 8 -11 5 -16 -4 -5 -1 -9 4 -9
6 0 11 -6 11 -14 0 -8 7 -16 15 -20 9 -3 12 -12 8 -22 -5 -12 -3 -15 6 -9 10
6 11 3 3 -11 -18 -33 -82 -91 -82 -74 0 5 -4 10 -10 10 -5 0 -7 -6 -4 -14 7
-18 -8 -27 -26 -15 -8 5 -11 9 -6 9 5 0 3 7 -4 15 -8 10 -17 12 -24 6 -7 -6
-17 -6 -26 -1 -13 9 -13 10 0 10 11 1 8 6 -9 20 -13 11 -18 20 -11 20 10 0 10
3 0 15 -7 8 -15 13 -19 11 -3 -2 -12 2 -19 10 -10 11 -10 14 0 14 9 0 9 3 -2
10 -13 8 -13 10 -1 10 12 0 11 3 -2 13 -11 8 -14 17 -8 26 6 9 11 10 15 2 4
-6 2 -11 -5 -11 -7 0 -9 -3 -6 -6 4 -4 15 -1 24 7 17 13 17 13 3 -6 -14 -19
-14 -19 5 -5 19 14 19 14 5 -5 -14 -20 -14 -20 7 -1 13 10 20 22 18 26 -3 4 2
11 11 14 15 6 13 -2 -10 -34 -6 -9 -1 -5 12 8 12 13 22 18 22 13 0 -6 9 -2 20
9 12 12 26 18 32 14 7 -4 8 -3 4 4 -5 8 -1 10 11 6 11 -3 9 0 -5 8 -12 8 -19
17 -15 21 4 4 8 15 9 24 2 12 0 13 -9 4 -8 -8 -16 -5 -32 12 -11 12 -17 18
-12 13 10 -14 9 -28 -2 -22 -5 3 -15 -2 -22 -12 -13 -15 -12 -16 4 -3 20 16
23 -1 3 -18 -11 -10 -17 -8 -25 6 -6 10 -11 14 -11 8 0 -5 -5 -3 -11 5 -9 13
-10 12 -5 -2 6 -20 5 -21 -18 -12 -9 3 -16 10 -16 16 0 5 4 6 10 3 6 -4 7 1 3
10 -5 16 -4 16 25 1 30 -15 32 -15 42 4 6 11 8 20 5 20 -4 0 -3 5 0 10 8 13
11 13 31 -7z m-126 -8 c6 -8 9 -18 6 -24 -13 -21 5 -39 35 -36 20 3 32 -1 36
-11 4 -11 11 -7 29 18 13 17 24 26 24 19 0 -8 6 -11 18 -6 13 5 14 3 5 -6 -6
-6 -9 -18 -6 -25 3 -8 0 -14 -7 -14 -6 0 -9 4 -6 8 2 4 1 14 -3 21 -6 9 -11
10 -15 2 -4 -6 -3 -11 3 -11 5 0 8 -7 7 -15 -3 -18 -16 -33 -16 -17 0 6 -9 10
-20 9 -19 -1 -25 -10 -21 -31 1 -5 -4 -5 -11 1 -7 6 -17 13 -23 15 -5 1 -9 12
-8 23 1 11 -1 14 -4 7 -3 -8 -11 -4 -25 13 -10 14 -16 30 -13 35 4 6 1 17 -5
25 -7 9 -8 15 -2 15 5 0 15 -7 22 -15z m0 -75 c8 -15 7 -26 -2 -44 -11 -21
-15 -23 -30 -12 -17 12 -17 14 2 31 15 14 17 21 9 32 -8 9 -8 13 -1 13 6 0 16
-9 22 -20z m280 -155 c-9 -10 -9 -15 -1 -15 6 0 11 -5 11 -11 0 -8 -5 -8 -15
1 -9 8 -15 8 -15 2 0 -6 7 -17 15 -26 8 -8 15 -18 15 -22 0 -3 -7 -1 -15 6
-18 15 -19 7 -3 -19 7 -11 19 -17 32 -14 20 3 20 3 1 -6 -25 -11 -57 24 -49
54 5 16 4 18 -7 8 -25 -24 -28 -13 -4 13 14 15 25 31 25 35 0 5 5 9 11 9 8 0
8 -5 -1 -15z m42 -59 c7 4 8 2 4 -5 -11 -17 -26 -3 -25 22 2 22 2 22 6 -1 3
-13 9 -19 15 -16z m25 -21 c0 -8 -4 -15 -9 -15 -10 0 -11 14 -1 23 9 10 10 9
10 -8z m-72 -45 c3 -5 2 -10 -4 -10 -5 0 -13 5 -16 10 -3 6 -2 10 4 10 5 0 13
-4 16 -10z m55 4 c0 -8 -19 -13 -24 -6 -3 5 1 9 9 9 8 0 15 -2 15 -3z m95 -13
c3 -5 2 -12 -3 -15 -5 -3 -9 1 -9 9 0 17 3 19 12 6z m-108 -46 c-7 -7 -16 -10
-22 -7 -5 3 -4 7 3 10 7 2 12 11 12 20 0 14 2 14 9 3 6 -9 5 -19 -2 -26z m53
21 c0 -2 -7 -7 -16 -10 -8 -3 -12 -2 -9 4 6 10 25 14 25 6z m17 -22 c-3 -3
-12 -4 -19 -1 -8 3 -5 6 6 6 11 1 17 -2 13 -5z m63 -43 c0 -4 -6 -8 -13 -8 -8
0 -14 6 -14 13 0 7 6 10 14 7 7 -3 13 -8 13 -12z m94 -3 c-3 -4 -11 -5 -19 -1
-21 7 -19 12 4 10 11 0 18 -5 15 -9z m74 -63 c-3 -3 -9 2 -12 12 -6 14 -5 15
5 6 7 -7 10 -15 7 -18z m99 -2 c0 -9 -4 -10 -14 -2 -7 6 -13 12 -13 14 0 1 6
2 13 2 8 0 14 -6 14 -14z"/>
<path d="M808 505 c-3 -3 -16 -8 -29 -10 -12 -3 -27 -12 -32 -20 -4 -8 -12
-13 -16 -10 -5 2 -16 -4 -26 -14 -9 -11 -25 -18 -36 -16 -24 5 -20 -14 9 -38
12 -10 20 -22 17 -27 -3 -4 2 -13 10 -20 8 -7 12 -17 8 -24 -4 -6 1 -5 10 3
10 8 19 12 21 10 1 -2 10 -15 19 -28 15 -22 16 -23 14 -3 0 11 -5 18 -11 15
-5 -3 -6 -1 -2 5 5 9 13 9 26 2 14 -8 25 -4 48 15 34 28 39 72 9 81 -9 3 -15
9 -12 14 3 5 1 11 -5 15 -6 4 -8 10 -5 15 3 5 1 11 -5 15 -6 4 -8 11 -5 16 7
10 2 12 -7 4z m7 -54 c18 -11 18 -12 -5 -6 -20 5 -18 2 10 -15 19 -11 25 -18
14 -15 -17 4 -21 1 -20 -17 1 -13 -2 -29 -7 -35 -12 -16 5 -17 20 -2 6 6 9 19
6 28 -5 13 -3 14 8 3 11 -10 10 -16 -7 -33 -20 -19 -54 -18 -54 3 0 5 4 7 9 3
5 -3 12 -1 15 4 3 5 -1 11 -9 15 -8 3 -15 2 -15 -2 0 -5 -6 -16 -13 -27 -11
-14 -16 -15 -22 -5 -5 8 -4 11 2 7 6 -4 13 0 17 8 6 18 1 19 -25 4 -11 -6 -17
-15 -12 -22 4 -7 0 -7 -10 2 -18 14 -22 22 -9 20 25 -4 23 4 -5 21 -18 11 -33
25 -33 30 0 6 4 9 9 6 4 -3 16 3 26 14 10 11 21 18 25 15 4 -2 16 4 26 14 15
14 21 15 29 6 6 -7 19 -18 30 -24z m0 29 c3 -6 -1 -7 -9 -4 -18 7 -21 14 -7
14 6 0 13 -4 16 -10z"/>
<path d="M752 454 c-12 -8 -22 -12 -22 -8 0 4 -9 -1 -20 -11 -11 -10 -20 -21
-20 -26 0 -8 56 -30 62 -23 2 2 15 5 28 7 13 2 24 11 26 20 1 10 -2 15 -7 11
-5 -3 -10 0 -10 5 -3 26 -4 30 -10 35 -3 3 -15 -1 -27 -10z m24 -7 c-3 -21
-32 -57 -40 -49 -4 4 -12 8 -17 8 -5 1 -12 2 -15 3 -4 0 -1 8 6 16 7 8 16 12
21 9 5 -3 16 2 25 10 19 19 23 20 20 3z m18 -35 c3 -5 -1 -9 -9 -9 -8 0 -12 4
-9 9 3 4 7 8 9 8 2 0 6 -4 9 -8z"/>
<path d="M755 429 c-4 -6 -13 -8 -21 -5 -7 3 -15 2 -18 -2 -9 -14 33 -11 45 4
6 8 9 14 6 14 -3 0 -9 -5 -12 -11z"/>
<path d="M667 524 c-3 -3 -3 -13 0 -21 5 -12 7 -12 14 -1 15 23 4 40 -14 22z"/>
<path d="M601 487 c-13 -21 -12 -21 5 -5 10 10 16 20 13 22 -3 3 -11 -5 -18
-17z"/>
<path d="M639 1033 c-13 -16 -12 -17 4 -4 9 7 17 15 17 17 0 8 -8 3 -21 -13z"/>
<path d="M694 1016 c1 -8 5 -18 8 -22 4 -3 5 1 4 10 -1 8 -5 18 -8 22 -4 3 -5
-1 -4 -10z"/>
<path d="M635 989 c-4 -6 -5 -12 -2 -15 2 -3 7 2 10 11 7 17 1 20 -8 4z"/>
<path d="M555 980 c3 -5 8 -10 11 -10 2 0 4 5 4 10 0 6 -5 10 -11 10 -5 0 -7
-4 -4 -10z"/>
<path d="M520 940 c-12 -7 -10 -9 7 -7 12 0 19 5 17 9 -6 10 -6 10 -24 -2z"/>
<path d="M360 920 c-9 -6 -10 -10 -3 -10 6 0 15 5 18 10 8 12 4 12 -15 0z"/>
<path d="M475 920 c3 -5 8 -10 11 -10 2 0 4 5 4 10 0 6 -5 10 -11 10 -5 0 -7
-4 -4 -10z"/>
<path d="M675 867 c2 -17 -1 -37 -5 -42 -6 -7 -2 -11 9 -11 15 0 17 5 11 21
-4 11 -6 28 -5 37 2 10 0 20 -5 23 -4 2 -6 -10 -5 -28z"/>
<path d="M515 881 c-3 -5 -2 -12 3 -15 5 -3 9 1 9 9 0 17 -3 19 -12 6z"/>
<path d="M414 856 c1 -8 5 -18 8 -22 4 -3 5 1 4 10 -1 8 -5 18 -8 22 -4 3 -5
-1 -4 -10z"/>
<path d="M630 862 c0 -5 7 -9 15 -9 8 0 12 4 9 9 -3 4 -9 8 -15 8 -5 0 -9 -4
-9 -8z"/>
<path d="M560 840 c-9 -6 -10 -10 -3 -10 6 0 15 5 18 10 8 12 4 12 -15 0z"/>
<path d="M496 802 c-3 -5 1 -9 9 -9 8 0 12 4 9 9 -3 4 -7 8 -9 8 -2 0 -6 -4
-9 -8z"/>
<path d="M606 798 c3 -4 9 -8 15 -8 5 0 9 4 9 8 0 5 -7 9 -15 9 -8 0 -12 -4
-9 -9z"/>
<path d="M647 799 c7 -7 15 -10 18 -7 3 3 -2 9 -12 12 -14 6 -15 5 -6 -5z"/>
<path d="M554 774 c1 -8 4 -15 7 -16 2 -2 3 -1 2 1 -2 2 2 9 7 16 7 8 5 12 -4
12 -8 0 -13 -6 -12 -13z"/>
<path d="M685 779 c-4 -6 -4 -13 -1 -16 3 -4 6 -1 6 6 0 7 5 9 12 5 7 -4 8 -3
4 4 -9 15 -13 15 -21 1z"/>
<path d="M707 760 c-15 -14 -16 -20 -5 -26 7 -4 10 -4 6 1 -4 4 0 14 10 21 9
7 15 14 12 17 -3 2 -13 -4 -23 -13z"/>
<path d="M414 758 c-4 -7 -3 -10 1 -5 5 4 18 -1 29 -10 21 -18 21 -18 2 5 -22
26 -23 26 -32 10z"/>
<path d="M581 754 c0 -11 3 -14 6 -6 3 7 2 16 -1 19 -3 4 -6 -2 -5 -13z"/>
<path d="M656 743 c-6 -14 -5 -15 5 -6 7 7 10 15 7 18 -3 3 -9 -2 -12 -12z"/>
<path d="M513 730 c1 -21 10 -18 13 5 1 8 -2 15 -6 15 -5 0 -8 -9 -7 -20z"/>
<path d="M575 719 c-4 -6 -5 -12 -2 -15 2 -3 7 2 10 11 7 17 1 20 -8 4z"/>
<path d="M614 713 c3 -21 28 -24 32 -5 1 7 0 8 -3 2 -2 -5 -9 -10 -14 -10 -6
0 -8 4 -4 9 3 5 1 12 -4 15 -5 4 -8 -2 -7 -11z"/>
<path d="M670 715 c0 -8 2 -15 4 -15 2 0 6 7 10 15 3 8 1 15 -4 15 -6 0 -10
-7 -10 -15z"/>
<path d="M467 699 c7 -7 15 -10 18 -7 3 3 -2 9 -12 12 -14 6 -15 5 -6 -5z"/>
<path d="M550 705 c0 -14 39 -63 40 -50 0 6 5 3 11 -5 7 -10 9 -11 7 -2 -2 8
-7 13 -12 12 -5 -1 -17 11 -27 27 -10 15 -19 24 -19 18z"/>
<path d="M590 701 c0 -10 29 -36 34 -30 1 2 -6 12 -16 22 -10 9 -18 13 -18 8z"/>
<path d="M660 680 c8 -5 22 -9 30 -9 10 0 8 3 -5 9 -27 12 -43 12 -25 0z"/>
<path d="M455 670 c-3 -6 1 -7 9 -4 18 7 21 14 7 14 -6 0 -13 -4 -16 -10z"/>
<path d="M551 665 c1 -19 18 -51 18 -35 0 8 -4 22 -9 30 -5 8 -9 11 -9 5z"/>
<path d="M511 648 c-1 -20 14 -24 25 -6 4 6 3 8 -4 4 -5 -3 -13 0 -15 6 -3 8
-6 6 -6 -4z"/>
<path d="M670 649 c0 -5 -4 -8 -9 -4 -5 3 -12 2 -15 -3 -2 -4 4 -9 15 -9 10
-1 19 5 19 13 0 8 -2 14 -5 14 -3 0 -5 -5 -5 -11z"/>
<path d="M453 627 c-1 -11 -1 -18 0 -16 2 2 8 11 15 20 9 12 9 16 -1 16 -7 0
-14 -9 -14 -20z"/>
<path d="M471 607 c-13 -21 -12 -21 5 -5 10 10 16 20 13 22 -3 3 -11 -5 -18
-17z"/>
<path d="M537 623 c-4 -3 -7 -13 -7 -22 1 -13 3 -13 11 2 11 19 8 33 -4 20z"/>
<path d="M496 605 c-3 -8 -1 -15 4 -15 6 0 10 7 10 15 0 8 -2 15 -4 15 -2 0
-6 -7 -10 -15z"/>
<path d="M550 591 c0 -5 7 -11 15 -15 8 -3 15 -1 15 3 0 5 -7 11 -15 15 -8 3
-15 1 -15 -3z"/>
<path d="M474 566 c1 -8 5 -18 8 -22 4 -3 5 1 4 10 -1 8 -5 18 -8 22 -4 3 -5
-1 -4 -10z"/>
<path d="M519 569 c14 -5 31 -15 38 -21 7 -6 13 -6 13 -1 0 11 -44 33 -63 32
-7 0 -1 -5 12 -10z"/>
<path d="M501 514 c0 -11 3 -14 6 -6 3 7 2 16 -1 19 -3 4 -6 -2 -5 -13z"/>
<path d="M635 360 c3 -5 8 -10 11 -10 2 0 4 5 4 10 0 6 -5 10 -11 10 -5 0 -7
-4 -4 -10z"/>
<path d="M700 280 c8 -5 20 -10 25 -10 6 0 3 5 -5 10 -8 5 -19 10 -25 10 -5 0
-3 -5 5 -10z"/>
<path d="M817 255 c10 -13 21 -25 25 -25 4 0 5 -9 3 -20 -2 -11 0 -18 5 -15 7
4 7 26 0 45 -1 3 -2 8 -2 11 1 3 -10 11 -24 18 l-25 11 18 -25z"/>
<path d="M755 250 c-3 -6 1 -7 9 -4 18 7 21 14 7 14 -6 0 -13 -4 -16 -10z"/>
<path d="M2131 176 c-8 -10 -9 -16 -1 -21 5 -3 10 -5 11 -3 4 18 7 38 4 38 -1
0 -8 -6 -14 -14z"/>
<path d="M955 140 c3 -5 8 -10 11 -10 2 0 4 5 4 10 0 6 -5 10 -11 10 -5 0 -7
-4 -4 -10z"/>
<path d="M1013 132 c0 -12 5 -22 9 -22 11 0 10 12 -2 30 -7 12 -9 10 -7 -8z"/>
<path d="M2045 130 c-3 -5 -1 -10 4 -10 6 0 11 5 11 10 0 6 -2 10 -4 10 -3 0
-8 -4 -11 -10z"/>
<path d="M2073 125 c0 -8 4 -15 9 -15 4 0 8 4 8 9 0 6 -4 12 -8 15 -5 3 -9 -1
-9 -9z"/>
<path d="M1095 110 c-4 -6 -4 -14 -1 -17 3 -4 6 0 6 8 0 12 2 11 10 -1 7 -12
11 -12 20 -2 5 6 7 10 4 7 -4 -3 -13 0 -20 6 -8 7 -14 7 -19 -1z"/>
<path d="M1170 78 c0 -4 4 -8 9 -8 6 0 12 4 15 8 3 5 -1 9 -9 9 -8 0 -15 -4
-15 -9z"/>
<path d="M1980 66 c0 -2 7 -7 16 -10 8 -3 12 -2 9 4 -6 10 -25 14 -25 6z"/>
<path d="M1780 41 c0 -6 4 -13 10 -16 6 -3 7 1 4 9 -7 18 -14 21 -14 7z"/>
</g>
</svg>
